<svg width="426" height="380" viewBox="0 0 426 380" fill="none" xmlns="http://www.w3.org/2000/svg">
<path d="M375.5 158.994L345.5 148.994C345.5 148.994 339.377 81.3742 310.5 52C281.099 22.092 251.305 15.9228 210 16.4941C170.36 17.0423 140.689 26.2293 113 54.9945C84.6516 84.445 77 148.994 77 148.994L49.5 155L31 175V250.5L50.5 268.494L81.5 274.494L93.5 281.494C93.5 281.494 91.4671 298.816 95 307.5C98.6422 316.452 111.5 327.5 111.5 327.5L128 339H165.5L181 354.5H233.5C233.5 354.5 246.796 350.863 250.5 343.994C254.022 337.463 253.673 329.707 250.5 323C246.976 315.551 233.5 312.494 233.5 312.494H181L165.5 324.994H128C128 324.994 110.676 315.077 106.5 303.5C103.518 295.235 104.5 281.494 104.5 281.494H143.5C143.5 281.494 149.276 280.584 151.5 278C153.975 275.125 153.5 268.494 153.5 268.494V158.994C153.5 158.994 153.548 153.731 151.5 151.5C149.286 149.088 143.5 148.994 143.5 148.994H89C89 148.994 97.849 85.8495 125 59.9941C150.553 35.66 174.74 30.1801 210 29.4941C247.289 28.7687 273.508 33.7163 300.5 59.9941C327.21 85.9968 335 148.994 335 148.994H280.5C280.5 148.994 276.276 148.584 274 151C271.856 153.276 272 157 272 157V268.494C272 268.494 271.34 274.981 275 278.5C278.519 281.883 284.5 281.494 284.5 281.494H335L345.5 274.494L372.5 266.5L394 243.494V183.994L375.5 158.994Z" fill="url(#paint0_linear_159_124)"/>
<rect x="285" y="161" width="53" height="105" fill="#161514"/>
<path d="M87 161H140V266H87V161Z" fill="#161514"/>
<defs>
<linearGradient id="paint0_linear_159_124" x1="212.5" y1="16.459" x2="212.5" y2="354.5" gradientUnits="userSpaceOnUse">
<stop stop-color="#E3D393"/>
<stop offset="1" stop-color="#BB9C31"/>
</linearGradient>
</defs>
</svg>
