<svg width="426" height="372" viewBox="0 0 426 372" fill="none" xmlns="http://www.w3.org/2000/svg">
<path d="M64 52.5H362C372.77 52.5 381.5 61.2305 381.5 72V300C381.5 310.77 372.77 319.5 362 319.5H64C53.2305 319.5 44.5 310.77 44.5 300V72C44.5 61.2304 53.2304 52.5 64 52.5Z" fill="#161514" stroke="#BDA45C" stroke-width="9"/>
<path d="M364 295.5L225 189L233 183L364 295.5Z" fill="url(#paint0_linear_159_142)"/>
<path d="M60.5 295.5L197 183.5L205.5 189L60.5 295.5Z" fill="url(#paint1_linear_159_142)"/>
<path d="M213.5 197.5L55 78L213.5 186.5L370 78L213.5 197.5Z" fill="url(#paint2_linear_159_142)"/>
<defs>
<linearGradient id="paint0_linear_159_142" x1="215" y1="183" x2="215" y2="271.5" gradientUnits="userSpaceOnUse">
<stop stop-color="#B19753"/>
<stop offset="1" stop-color="#E4D596"/>
</linearGradient>
<linearGradient id="paint1_linear_159_142" x1="215" y1="183" x2="215" y2="271.5" gradientUnits="userSpaceOnUse">
<stop stop-color="#B19753"/>
<stop offset="1" stop-color="#E4D596"/>
</linearGradient>
<linearGradient id="paint2_linear_159_142" x1="213.25" y1="101" x2="213.25" y2="197.5" gradientUnits="userSpaceOnUse">
<stop stop-color="#E4D596"/>
<stop offset="1" stop-color="#B19753"/>
</linearGradient>
</defs>
</svg>
