<svg width="393" height="397" viewBox="0 0 393 397" fill="none" xmlns="http://www.w3.org/2000/svg">
<circle cx="196" cy="198" r="172.5" fill="#161514" stroke="url(#paint0_linear_159_135)" stroke-width="15"/>
<path d="M287.506 98L167.006 124.5V241.5C167.006 241.5 160.484 234.184 155.006 231.5C144.836 226.518 136.248 226.666 126.006 231.5C117.262 235.627 112.855 240.63 109.006 249.5C106.628 254.98 105.924 258.527 106.006 264.5C106.083 270.091 106.729 273.393 109.006 278.5C113.57 288.733 120.232 293.063 130.506 297.5C135.769 299.773 139.905 299.675 146.006 299.5C152.782 299.306 158.46 298.674 163.006 296C171.734 290.867 177.006 285.5 181.006 276V176.5L275.006 158V216C275.006 216 270.037 212.278 266.506 210.5C259.485 206.964 254.856 204.918 247.006 205.5C239.969 206.022 235.145 207.379 229.506 212C224.73 215.914 222.9 219.308 220.506 225C218.191 230.507 217.424 234.027 217.506 240C217.583 245.591 218.453 248.799 220.506 254C223.39 261.306 225.617 265.931 232.006 270.5C238.595 275.212 243.906 275.901 252.006 276C260.483 276.104 265.784 274.94 273.006 270.5C277.006 268.041 282.006 265.5 287.506 254V98Z" fill="url(#paint1_linear_159_135)"/>
<defs>
<linearGradient id="paint0_linear_159_135" x1="196" y1="18" x2="196" y2="378" gradientUnits="userSpaceOnUse">
<stop stop-color="#EBDDA0"/>
<stop offset="1" stop-color="#A7894A"/>
</linearGradient>
<linearGradient id="paint1_linear_159_135" x1="196.753" y1="98" x2="196.753" y2="299.581" gradientUnits="userSpaceOnUse">
<stop stop-color="#EFE2A5"/>
<stop offset="1" stop-color="#A7894A"/>
</linearGradient>
</defs>
</svg>
